<svg width="95" height="47" viewBox="0 0 95 47" fill="none" xmlns="http://www.w3.org/2000/svg">
<path d="M33.3525 47H16.7125C15.9018 47 15.2192 46.8507 14.6645 46.552C14.1525 46.2533 13.7472 45.6987 13.4485 44.888L7.1765 29.208C6.7925 28.2693 6.4725 27.4587 6.2165 26.776C5.9605 26.0507 5.74717 25.368 5.5765 24.728C5.40583 24.088 5.27783 23.4267 5.1925 22.744C5.14983 22.0187 5.1285 21.144 5.1285 20.12V3.224C5.1285 2.41333 5.29917 1.83733 5.6405 1.496C6.0245 1.112 6.62183 0.919998 7.4325 0.919998H17.6085C18.4192 0.919998 19.0378 1.112 19.4645 1.496C19.8912 1.83733 20.1045 2.41333 20.1045 3.224V20.888C20.1045 21.3147 20.1472 21.7413 20.2325 22.168C20.3178 22.5947 20.4458 23.0427 20.6165 23.512L23.6245 32.472C23.7525 32.8987 23.9018 33.1973 24.0725 33.368C24.2432 33.496 24.4992 33.56 24.8405 33.56H25.5445C25.8858 33.56 26.1418 33.496 26.3125 33.368C26.4832 33.1973 26.6325 32.8987 26.7605 32.472L29.7685 23.448C29.9392 22.9787 30.0672 22.5307 30.1525 22.104C30.2378 21.6773 30.2805 21.2507 30.2805 20.824V3.224C30.2805 2.41333 30.4512 1.83733 30.7925 1.496C31.1765 1.112 31.7738 0.919998 32.5845 0.919998H42.6325C43.4432 0.919998 44.0192 1.112 44.3605 1.496C44.7445 1.83733 44.9365 2.41333 44.9365 3.224V20.12C44.9365 21.144 44.8938 22.0187 44.8085 22.744C44.7658 23.4267 44.6592 24.088 44.4885 24.728C44.3178 25.368 44.1045 26.0507 43.8485 26.776C43.5925 27.4587 43.2725 28.2693 42.8885 29.208L36.6165 44.888C36.3178 45.6987 35.8912 46.2533 35.3365 46.552C34.8245 46.8507 34.1632 47 33.3525 47ZM66.3425 47H56.4225C55.6118 47 55.0145 46.8293 54.6305 46.488C54.2892 46.104 54.1185 45.5067 54.1185 44.696V3.224C54.1185 2.41333 54.2892 1.83733 54.6305 1.496C55.0145 1.112 55.6118 0.919998 56.4225 0.919998H76.0065C81.8092 0.919998 85.7772 2.072 87.9105 4.376C90.0438 6.68 91.1105 9.688 91.1105 13.4V21.592C91.1105 25.304 90.0438 28.312 87.9105 30.616C85.7772 32.92 81.8092 34.072 76.0065 34.072H68.6465V44.696C68.6465 45.5067 68.4545 46.104 68.0705 46.488C67.7292 46.8293 67.1532 47 66.3425 47ZM68.5185 12.888V22.552H74.2785C75.5158 22.552 76.3265 22.232 76.7105 21.592C77.0945 20.952 77.2865 20.2267 77.2865 19.416V16.024C77.2865 15.2133 77.0945 14.488 76.7105 13.848C76.3265 13.208 75.5158 12.888 74.2785 12.888H68.5185Z" fill="#83AA31"/>
</svg>
