<svg width="30" height="31" viewBox="0 0 30 31" fill="none" xmlns="http://www.w3.org/2000/svg">
<path d="M15 26.5463C13.2175 26.5476 11.4625 26.1072 9.89196 25.2643C8.32138 24.4214 6.98419 23.2024 6 21.7163C6.039 18.7358 12.006 17.0963 14.997 17.0963C17.988 17.0963 23.955 18.7358 23.994 21.7163C23.0104 23.2015 21.6741 24.42 20.1047 25.2629C18.5352 26.1057 16.7814 26.5466 15 26.5463ZM15 5.24628C16.1734 5.27658 17.2885 5.76398 18.1077 6.60459C18.9268 7.4452 19.3853 8.57253 19.3853 9.74628C19.3853 10.92 18.9268 12.0474 18.1077 12.888C17.2885 13.7286 16.1734 14.216 15 14.2463C13.8065 14.2463 12.6619 13.7722 11.818 12.9283C10.9741 12.0843 10.5 10.9398 10.5 9.74628C10.5 8.5528 10.9741 7.40821 11.818 6.5643C12.6619 5.72038 13.8065 5.24628 15 5.24628ZM15 0.746277C6.714 0.746277 0 7.46028 0 15.7463C0 24.0308 6.714 30.7463 15 30.7463C23.283 30.7463 30 24.0308 30 15.7463C30 7.46028 23.283 0.746277 15 0.746277Z" fill="#383838"/>
</svg>
