<svg width="30" height="30" viewBox="0 0 30 30" fill="none" xmlns="http://www.w3.org/2000/svg">
<circle cx="15" cy="15" r="13" fill="white"/>
<path d="M15 25.8C13.2175 25.8013 11.4625 25.3609 9.89196 24.518C8.32138 23.6751 6.98419 22.4561 6 20.97C6.039 17.9895 12.006 16.35 14.997 16.35C17.988 16.35 23.955 17.9895 23.994 20.97C23.0104 22.4553 21.6741 23.6737 20.1047 24.5166C18.5352 25.3594 16.7814 25.8003 15 25.8ZM15 4.5C16.1734 4.5303 17.2885 5.0177 18.1077 5.85831C18.9268 6.69892 19.3853 7.82625 19.3853 9C19.3853 10.1737 18.9268 11.3011 18.1077 12.1417C17.2885 12.9823 16.1734 13.4697 15 13.5C13.8065 13.5 12.6619 13.0259 11.818 12.182C10.9741 11.3381 10.5 10.1935 10.5 9C10.5 7.80653 10.9741 6.66193 11.818 5.81802C12.6619 4.97411 13.8065 4.5 15 4.5ZM15 0C6.714 0 0 6.714 0 15C0 23.2845 6.714 30 15 30C23.283 30 30 23.2845 30 15C30 6.714 23.283 0 15 0Z" fill="#383838"/>
</svg>
